<?xml version="1.0" encoding="utf-8"?>
<!-- Generator: Adobe Illustrator 15.0.0, SVG Export Plug-In . SVG Version: 6.00 Build 0)  -->
<!DOCTYPE svg PUBLIC "-//W3C//DTD SVG 1.1//EN" "http://www.w3.org/Graphics/SVG/1.1/DTD/svg11.dtd">
<svg version="1.1" id="Layer_1" xmlns="http://www.w3.org/2000/svg" xmlns:xlink="http://www.w3.org/1999/xlink" x="0px" y="0px"
	 width="500px" height="339.176px" viewBox="0 0 500 339.176" enable-background="new 0 0 500 339.176" xml:space="preserve">
<g>
	<path fill="none" d="M197.017,282.019"/>
</g>
<g>
	<g>
		
			<line fill="none" stroke="#0000FF" stroke-width="1.5" stroke-linecap="round" stroke-miterlimit="10" x1="413.89" y1="79.088" x2="295.493" y2="79.088"/>
		<g>
			<polygon fill="#0000FF" points="301.287,71.938 302.479,73.219 296.165,79.086 302.479,84.957 301.287,86.237 293.598,79.086 			
				"/>
		</g>
	</g>
</g>
<g>
	<g>
		
			<line fill="none" stroke="#0000FF" stroke-width="1.5" stroke-linecap="round" stroke-miterlimit="10" x1="238.653" y1="79.088" x2="120.256" y2="79.088"/>
		<g>
			<polygon fill="#0000FF" points="126.049,71.938 127.242,73.219 120.927,79.086 127.242,84.957 126.049,86.237 118.36,79.086 			
				"/>
		</g>
	</g>
</g>
<g>
	<g>
		
			<line fill="none" stroke="#006837" stroke-width="1.5" stroke-linecap="round" stroke-miterlimit="10" x1="144.164" y1="261.747" x2="88.31" y2="131.348"/>
		<g>
			<polygon fill="#006837" points="97.163,133.858 96.455,135.458 88.576,131.965 85.666,140.08 84.018,139.489 87.563,129.605 			
				"/>
		</g>
	</g>
</g>
<g>
	<path fill="none" d="M379.824,206.73"/>
</g>
<g>
	<circle fill="#FFFFFF" stroke="#006837" stroke-width="2" stroke-miterlimit="10" cx="144.164" cy="261.748" r="47.761"/>
	<text transform="matrix(1 0 0 1 139.1802 281.3613)" fill="#006837" font-family="'Futura-Medium'" font-size="56.9074">4</text>
</g>
<g>
	<circle fill="#FFFFFF" stroke="#0000FF" stroke-width="2" stroke-miterlimit="10" cx="64.907" cy="79.089" r="47.761"/>
	<text transform="matrix(1 0 0 1 59.084 98.7012)" fill="#0000FF" font-family="'Futura-Medium'" font-size="56.9074">1</text>
</g>
<g>
	<circle fill="#FFFFFF" stroke="#0000FF" stroke-width="2" stroke-miterlimit="10" cx="238.653" cy="79.089" r="47.761"/>
	<text transform="matrix(1 0 0 1 236.8306 98.7012)" fill="#0000FF" font-family="'Futura-Medium'" font-size="56.9074">2</text>
</g>
<g>
	<circle fill="#FFFFFF" stroke="#0000FF" stroke-width="2" stroke-miterlimit="10" cx="413.889" cy="79.088" r="47.762"/>
	<text transform="matrix(1 0 0 1 409.0674 98.7012)" fill="#0000FF" font-family="'Futura-Medium'" font-size="56.9074">3</text>
</g>
<g>
	<path fill="#FFFFFF" stroke="#0000FF" stroke-miterlimit="10" d="M469.345,55.248c0,2.255-2.102,4.087-4.694,4.087h-22.378
		c-2.594,0-4.695-1.832-4.695-4.087V26.27c0-2.256,2.104-4.086,4.695-4.086h22.378c2.596,0,4.694,1.831,4.694,4.086V55.248z"/>
	<text transform="matrix(1 0 0 1 441.793 52.7974)" fill="#0000FF" font-family="'Futura-Medium'" font-size="31.6153">A</text>
</g>
<g>
	<g>
		
			<line fill="none" stroke="#006837" stroke-width="1.5" stroke-linecap="round" stroke-miterlimit="10" x1="200.972" y1="261.748" x2="321.531" y2="261.748"/>
		<g>
			<path fill="#006837" d="M210.59,269.295c0.248,0,0.49-0.123,0.634-0.348c0.223-0.348,0.119-0.812-0.23-1.035l-9.679-6.164
				l9.679-6.164c0.35-0.223,0.453-0.688,0.23-1.035c-0.223-0.35-0.689-0.45-1.036-0.23l-10.672,6.797
				c-0.216,0.138-0.347,0.377-0.347,0.633s0.131,0.495,0.347,0.633l10.672,6.797C210.312,269.257,210.452,269.295,210.59,269.295
				C210.837,269.295,210.452,269.295,210.59,269.295z"/>
		</g>
	</g>
</g>
<g>
	<circle fill="#FFFFFF" stroke="#006837" stroke-width="2" stroke-miterlimit="10" cx="335.517" cy="261.749" r="47.76"/>
	<text transform="matrix(1 0 0 1 330.6943 281.3594)" fill="#006837" font-family="'Futura-Medium'" font-size="56.9074">5</text>
</g>
<g>
	<path fill="#FFFFFF" stroke="#006837" stroke-miterlimit="10" d="M387.625,234.046c0,2.256-2.106,4.083-4.696,4.083h-22.378
		c-2.593,0-4.693-1.827-4.693-4.083v-28.977c0-2.258,2.104-4.089,4.693-4.089h22.378c2.593,0,4.696,1.831,4.696,4.089V234.046z"/>
	<text transform="matrix(1 0 0 1 362.4062 231.5967)" fill="#006837" font-family="'Futura-Medium'" font-size="31.6153">B</text>
</g>
<text transform="matrix(1 0 0 1 42.7021 61.6411)"><tspan x="0" y="0" fill="#0000FF" font-family="'Futura-Medium'" font-size="24">a</tspan><tspan x="0" y="22" fill="#0000FF" font-family="'Futura-Medium'" font-size="24">b</tspan><tspan x="0" y="39" fill="#0000FF" font-family="'Futura-Medium'" font-size="24">c</tspan></text>
<text transform="matrix(1 0 0 1 116.2368 248.7969)"><tspan x="0" y="0" fill="#006837" font-family="'Futura-Medium'" font-size="24">d</tspan><tspan x="0" y="22" fill="#006837" font-family="'Futura-Medium'" font-size="24">b</tspan><tspan x="0" y="39" fill="#006837" font-family="'Futura-Medium'" font-size="24">c</tspan></text>
<text transform="matrix(1 0 0 1 308.7695 239.7969)"><tspan x="0" y="0" fill="#006837" font-family="'Futura-Medium'" font-size="24">m</tspan><tspan x="0" y="14" fill="#006837" font-family="'Futura-Medium'" font-size="24">n</tspan><tspan x="0" y="36" fill="#006837" font-family="'Futura-Medium'" font-size="24">b</tspan><tspan x="0" y="53" fill="#006837" font-family="'Futura-Medium'" font-size="24">c</tspan></text>
<text transform="matrix(1 0 0 1 216.5552 55.3345)"><tspan x="0" y="0" fill="#0000FF" font-family="'Futura-Medium'" font-size="24">a</tspan><tspan x="0" y="22" fill="#0000FF" font-family="'Futura-Medium'" font-size="24">b</tspan><tspan x="0" y="39" fill="#0000FF" font-family="'Futura-Medium'" font-size="24">c</tspan><tspan x="0" y="56" fill="#0000FF" font-family="'Futura-Medium'" font-size="24">e</tspan></text>
<text transform="matrix(1 0 0 1 387.625 55.3345)"><tspan x="0" y="0" fill="#0000FF" font-family="'Futura-Medium'" font-size="24">q</tspan><tspan x="0" y="22" fill="#0000FF" font-family="'Futura-Medium'" font-size="24">b</tspan><tspan x="0" y="39" fill="#0000FF" font-family="'Futura-Medium'" font-size="24">c</tspan><tspan x="0" y="56" fill="#0000FF" font-family="'Futura-Medium'" font-size="24">e</tspan></text>
</svg>
