<?xml version="1.0" encoding="utf-8"?>
<!-- Generator: Adobe Illustrator 15.0.0, SVG Export Plug-In . SVG Version: 6.00 Build 0)  -->
<!DOCTYPE svg PUBLIC "-//W3C//DTD SVG 1.1//EN" "http://www.w3.org/Graphics/SVG/1.1/DTD/svg11.dtd">
<svg version="1.1" id="Layer_1" xmlns="http://www.w3.org/2000/svg" xmlns:xlink="http://www.w3.org/1999/xlink" x="0px" y="0px"
	 width="500px" height="339.176px" viewBox="0 0 500 339.176" enable-background="new 0 0 500 339.176" xml:space="preserve">
<g>
	<path fill="none" d="M171.472,239.117"/>
</g>
<g>
	<path fill="none" d="M278.3,280.094"/>
</g>
<g>
	<g>
		
			<line fill="none" stroke="#006837" stroke-width="1.5" stroke-linecap="round" stroke-miterlimit="10" x1="273.275" y1="166.008" x2="171.073" y2="200.778"/>
		<g>
			<polygon fill="#006837" points="173.802,193.369 175.125,194.08 171.617,200.59 178.368,203.614 177.753,204.983 169.532,201.3 
							"/>
		</g>
	</g>
</g>
<g>
	<g>
		
			<line fill="none" stroke="#93278F" stroke-width="1.5" stroke-linecap="round" stroke-miterlimit="10" x1="278.3" y1="280.094" x2="172.991" y2="239.7"/>
		<g>
			<polygon fill="#93278F" points="179.828,235.751 180.39,237.144 173.528,239.904 176.783,246.546 175.435,247.206 
				171.472,239.116 			"/>
		</g>
	</g>
</g>
<g>
	<g>
		
			<line fill="none" stroke="#006837" stroke-width="1.5" stroke-linecap="round" stroke-miterlimit="10" x1="436.543" y1="221.725" x2="323.038" y2="263.418"/>
		<g>
			<polygon fill="#006837" points="325.586,255.945 326.926,256.625 323.577,263.219 330.399,266.078 329.817,267.461 
				321.508,263.979 			"/>
		</g>
	</g>
</g>
<g>
	<g>
		
			<line fill="none" stroke="#006837" stroke-width="1.5" stroke-linecap="round" stroke-miterlimit="10" x1="428.336" y1="211.147" x2="325.958" y2="171.877"/>
		<g>
			<polygon fill="#006837" points="332.795,167.929 333.358,169.321 326.497,172.082 329.75,178.724 328.403,179.383 
				324.44,171.293 			"/>
		</g>
	</g>
</g>
<g>
	<g>
		
			<line fill="none" stroke="#0000FF" stroke-width="1.5" stroke-linecap="round" stroke-miterlimit="10" x1="357.545" y1="65.007" x2="255.963" y2="65.007"/>
		<g>
			<polygon fill="#0000FF" points="260.934,58.872 261.957,59.971 256.539,65.005 261.957,70.042 260.934,71.14 254.336,65.005 			
				"/>
		</g>
	</g>
</g>
<g>
	<g>
		
			<line fill="none" stroke="#0000FF" stroke-width="1.5" stroke-linecap="round" stroke-miterlimit="10" x1="207.195" y1="65.007" x2="105.613" y2="65.007"/>
		<g>
			<polygon fill="#0000FF" points="110.583,58.872 111.606,59.971 106.188,65.005 111.606,70.042 110.583,71.14 103.986,65.005 			
				"/>
		</g>
	</g>
</g>
<g>
	<g>
		
			<line fill="none" stroke="#006837" stroke-width="1.5" stroke-linecap="round" stroke-miterlimit="10" x1="126.125" y1="221.725" x2="78.203" y2="109.845"/>
		<g>
			<polygon fill="#006837" points="85.799,111.998 85.192,113.371 78.431,110.374 75.935,117.336 74.521,116.829 77.563,108.349 			
				"/>
		</g>
	</g>
</g>
<g>
	<path fill="none" d="M328.317,174.522"/>
</g>
<g>
	<path fill="none" d="M440.008,221.725"/>
</g>
<g>
	<circle fill="#FFFFFF" stroke="#006837" stroke-width="2" stroke-miterlimit="10" cx="126.125" cy="221.725" r="40.978"/>
	<text transform="matrix(1 0 0 1 109.8369 238.5532)" fill="#006837" font-family="'Futura-Medium'" font-size="48.8255">4</text>
</g>
<g>
	<circle fill="#FFFFFF" stroke="#006837" stroke-width="2" stroke-miterlimit="10" cx="436.543" cy="221.725" r="40.977"/>
	<text transform="matrix(1 0 0 1 425.6812 238.5532)" fill="#006837" font-family="'Futura-Medium'" font-size="48.8255">7</text>
</g>
<g>
	<circle fill="#FFFFFF" stroke="#006837" stroke-width="2" stroke-miterlimit="10" cx="278.302" cy="164.052" r="40.978"/>
	<text transform="matrix(1 0 0 1 264.7266 180.8774)" fill="#006837" font-family="'Futura-Medium'" font-size="48.8255">5</text>
</g>
<g>
	<circle fill="#FFFFFF" stroke="#93278F" stroke-width="2" stroke-miterlimit="10" cx="278.302" cy="280.096" r="40.978"/>
	<text transform="matrix(1 0 0 1 264.7266 296.9238)" fill="#93278F" font-family="'Futura-Medium'" font-size="48.8255">6</text>
</g>
<g>
	<circle fill="#FFFFFF" stroke="#0000FF" stroke-width="2" stroke-miterlimit="10" cx="58.124" cy="65.007" r="40.978"/>
	<text transform="matrix(1 0 0 1 44.5479 81.8345)" fill="#0000FF" font-family="'Futura-Medium'" font-size="48.8255">1</text>
</g>
<g>
	<circle fill="#FFFFFF" stroke="#0000FF" stroke-width="2" stroke-miterlimit="10" cx="207.195" cy="65.007" r="40.978"/>
	<text transform="matrix(1 0 0 1 193.6191 81.8345)" fill="#0000FF" font-family="'Futura-Medium'" font-size="48.8255">2</text>
</g>
<g>
	<circle fill="#FFFFFF" stroke="#0000FF" stroke-width="2" stroke-miterlimit="10" cx="357.544" cy="65.007" r="40.979"/>
	<text transform="matrix(1 0 0 1 343.9683 81.8345)" fill="#0000FF" font-family="'Futura-Medium'" font-size="48.8255">3</text>
</g>
<g>
	<path fill="#FFFFFF" stroke="#0000FF" stroke-miterlimit="10" d="M405.124,44.552c0,1.935-1.803,3.506-4.027,3.506h-19.201
		c-2.225,0-4.029-1.571-4.029-3.506V19.689c0-1.935,1.805-3.506,4.029-3.506h19.201c2.225,0,4.027,1.571,4.027,3.506V44.552z"/>
	<text transform="matrix(1 0 0 1 381.4849 42.4497)" fill="#0000FF" font-family="'Futura-Medium'" font-size="27.1253">A</text>
</g>
<g>
	<path fill="#FFFFFF" stroke="#006837" stroke-miterlimit="10" d="M488.196,201.51c0,1.936-1.805,3.504-4.029,3.504h-19.199
		c-2.225,0-4.029-1.568-4.029-3.504v-24.862c0-1.936,1.805-3.508,4.029-3.508h19.199c2.225,0,4.029,1.572,4.029,3.508V201.51z"/>
	<text transform="matrix(1 0 0 1 466.5591 199.4087)" fill="#006837" font-family="'Futura-Medium'" font-size="27.1253">B</text>
</g>
</svg>
