<?xml version="1.0" encoding="utf-8"?>
<!-- Generator: Adobe Illustrator 15.0.0, SVG Export Plug-In . SVG Version: 6.00 Build 0)  -->
<!DOCTYPE svg PUBLIC "-//W3C//DTD SVG 1.1//EN" "http://www.w3.org/Graphics/SVG/1.1/DTD/svg11.dtd">
<svg version="1.1" id="Layer_1" xmlns="http://www.w3.org/2000/svg" xmlns:xlink="http://www.w3.org/1999/xlink" x="0px" y="0px"
	 width="874.68px" height="128.438px" viewBox="0 0 874.68 128.438" enable-background="new 0 0 874.68 128.438"
	 xml:space="preserve">
<g>
	<g>
		
			<line fill="none" stroke="#0000FF" stroke-width="1.5" stroke-linecap="round" stroke-miterlimit="10" x1="357.545" y1="65.007" x2="255.963" y2="65.007"/>
		<g>
			<polygon fill="#0000FF" points="260.934,58.872 261.957,59.971 256.539,65.005 261.957,70.042 260.934,71.14 254.336,65.005 			
				"/>
		</g>
	</g>
</g>
<g>
	<g>
		
			<line fill="none" stroke="#0000FF" stroke-width="1.5" stroke-linecap="round" stroke-miterlimit="10" x1="207.195" y1="65.007" x2="105.613" y2="65.007"/>
		<g>
			<polygon fill="#0000FF" points="110.583,58.872 111.606,59.971 106.188,65.005 111.606,70.042 110.583,71.14 103.986,65.005 			
				"/>
		</g>
	</g>
</g>
<g>
	<circle fill="#FFFFFF" stroke="#0000FF" stroke-width="2" stroke-miterlimit="10" cx="58.124" cy="65.007" r="40.978"/>
	<text transform="matrix(1 0 0 1 44.5479 81.8342)" fill="#0000FF" font-family="'Futura-Medium'" font-size="48.8255">1</text>
</g>
<g>
	<circle fill="#FFFFFF" stroke="#0000FF" stroke-width="2" stroke-miterlimit="10" cx="207.195" cy="65.007" r="40.978"/>
	<text transform="matrix(1 0 0 1 193.6191 81.8342)" fill="#0000FF" font-family="'Futura-Medium'" font-size="48.8255">2</text>
</g>
<g>
	<circle fill="#FFFFFF" stroke="#0000FF" stroke-width="2" stroke-miterlimit="10" cx="357.544" cy="65.007" r="40.979"/>
	<text transform="matrix(1 0 0 1 343.9683 81.8342)" fill="#0000FF" font-family="'Futura-Medium'" font-size="48.8255">3</text>
</g>
<g>
	<g>
		
			<line fill="none" stroke="#0000FF" stroke-width="1.5" stroke-linecap="round" stroke-miterlimit="10" x1="658.684" y1="65.007" x2="557.1" y2="65.007"/>
		<g>
			<polygon fill="#0000FF" points="562.073,58.872 563.094,59.971 557.676,65.005 563.094,70.042 562.073,71.14 555.475,65.005 			
				"/>
		</g>
	</g>
</g>
<g>
	<g>
		
			<line fill="none" stroke="#0000FF" stroke-width="1.5" stroke-linecap="round" stroke-miterlimit="10" x1="508.333" y1="65.007" x2="406.751" y2="65.007"/>
		<g>
			<polygon fill="#0000FF" points="411.721,58.872 412.745,59.971 407.327,65.005 412.745,70.042 411.721,71.14 405.125,65.005 			
				"/>
		</g>
	</g>
</g>
<g>
	<circle fill="#FFFFFF" stroke="#0000FF" stroke-width="2" stroke-miterlimit="10" cx="508.333" cy="65.007" r="40.978"/>
	<text transform="matrix(1 0 0 1 489.7573 81.8342)" fill="#0000FF" font-family="'Futura-Medium'" font-size="48.8255">4’</text>
</g>
<g>
	<circle fill="#FFFFFF" stroke="#0000FF" stroke-width="2" stroke-miterlimit="10" cx="658.682" cy="65.007" r="40.979"/>
	<text transform="matrix(1 0 0 1 643.1069 81.8342)" fill="#0000FF" font-family="'Futura-Medium'" font-size="48.8255">5’</text>
</g>
<g>
	<g>
		
			<line fill="none" stroke="#0000FF" stroke-width="1.5" stroke-linecap="round" stroke-miterlimit="10" x1="810.911" y1="65.007" x2="709.327" y2="65.007"/>
		<g>
			<polygon fill="#0000FF" points="714.295,58.872 715.321,59.971 709.903,65.005 715.321,70.042 714.295,71.14 707.702,65.005 			
				"/>
		</g>
	</g>
</g>
<g>
	<circle fill="#FFFFFF" stroke="#0000FF" stroke-width="2" stroke-miterlimit="10" cx="810.909" cy="65.007" r="40.979"/>
	<text transform="matrix(1 0 0 1 793.3325 81.8342)" fill="#0000FF" font-family="'Futura-Medium'" font-size="48.8255">6’</text>
</g>
<g>
	<path fill="#FFFFFF" stroke="#0000FF" stroke-miterlimit="10" d="M400.125,40.461c0,1.935-1.803,3.506-4.025,3.506h-19.201
		c-2.225,0-4.029-1.571-4.029-3.506V15.598c0-1.935,1.805-3.506,4.029-3.506H396.1c2.225,0,4.025,1.571,4.025,3.506V40.461z"/>
	<text transform="matrix(1 0 0 1 376.4863 38.3586)" fill="#0000FF" font-family="'Futura-Medium'" font-size="27.1253">A</text>
</g>
<g>
	<path fill="#FFFFFF" stroke="#007F06" stroke-miterlimit="10" d="M853.887,34.459c0,1.935-1.803,3.506-4.025,3.506h-19.201
		c-2.225,0-4.029-1.571-4.029-3.506V9.596c0-1.935,1.805-3.506,4.029-3.506h19.201c2.225,0,4.025,1.571,4.025,3.506V34.459z"/>
	<text transform="matrix(1 0 0 1 832.2524 32.3567)" fill="#007F06" font-family="'Futura-Medium'" font-size="27.1253">B</text>
</g>
</svg>
