<?xml version="1.0" encoding="utf-8"?>
<!-- Generator: Adobe Illustrator 15.0.0, SVG Export Plug-In . SVG Version: 6.00 Build 0)  -->
<!DOCTYPE svg PUBLIC "-//W3C//DTD SVG 1.1//EN" "http://www.w3.org/Graphics/SVG/1.1/DTD/svg11.dtd">
<svg version="1.1" id="Layer_1" xmlns="http://www.w3.org/2000/svg" xmlns:xlink="http://www.w3.org/1999/xlink" x="0px" y="0px"
	 width="424.305px" height="273.6px" viewBox="0 0 424.305 273.6" enable-background="new 0 0 424.305 273.6" xml:space="preserve">
<g>
	<path fill="none" d="M171.472,239.117"/>
</g>
<g>
	<g>
		
			<line fill="none" stroke="#0000FF" stroke-width="1.5" stroke-linecap="round" stroke-miterlimit="10" x1="357.545" y1="65.007" x2="255.963" y2="65.007"/>
		<g>
			<polygon fill="#0000FF" points="260.934,58.872 261.957,59.971 256.539,65.005 261.957,70.042 260.934,71.14 254.336,65.005 			
				"/>
		</g>
	</g>
</g>
<g>
	<g>
		
			<line fill="none" stroke="#0000FF" stroke-width="1.5" stroke-linecap="round" stroke-miterlimit="10" x1="207.195" y1="65.007" x2="105.613" y2="65.007"/>
		<g>
			<polygon fill="#0000FF" points="110.583,58.872 111.606,59.971 106.188,65.005 111.606,70.042 110.583,71.14 103.986,65.005 			
				"/>
		</g>
	</g>
</g>
<g>
	<g>
		
			<line fill="none" stroke="#006837" stroke-width="1.5" stroke-linecap="round" stroke-miterlimit="10" x1="126.125" y1="221.725" x2="78.203" y2="109.845"/>
		<g>
			<polygon fill="#006837" points="85.799,111.998 85.192,113.371 78.431,110.374 75.935,117.336 74.521,116.829 77.563,108.349 			
				"/>
		</g>
	</g>
</g>
<g>
	<path fill="none" d="M296.674,222.133"/>
</g>
<g>
	<circle fill="#FFFFFF" stroke="#006837" stroke-width="2" stroke-miterlimit="10" cx="126.125" cy="221.725" r="40.978"/>
	<text transform="matrix(1 0 0 1 109.8369 238.5527)" fill="#006837" font-family="'Futura-Medium'" font-size="48.8255">D</text>
</g>
<g>
	<circle fill="#FFFFFF" stroke="#0000FF" stroke-width="2" stroke-miterlimit="10" cx="58.124" cy="65.007" r="40.978"/>
	<text transform="matrix(1 0 0 1 39.5479 81.834)" fill="#0000FF" font-family="'Futura-Medium'" font-size="48.8255">A</text>
</g>
<g>
	<circle fill="#FFFFFF" stroke="#0000FF" stroke-width="2" stroke-miterlimit="10" cx="207.195" cy="65.007" r="40.978"/>
	<text transform="matrix(1 0 0 1 194.6191 81.834)" fill="#0000FF" font-family="'Futura-Medium'" font-size="48.8255">B</text>
</g>
<g>
	<circle fill="#FFFFFF" stroke="#0000FF" stroke-width="2" stroke-miterlimit="10" cx="357.544" cy="65.007" r="40.979"/>
	<text transform="matrix(1 0 0 1 338.9688 81.834)" fill="#0000FF" font-family="'Futura-Medium'" font-size="48.8255">C</text>
</g>
<g>
	<path fill="#FFFFFF" stroke="#0000FF" stroke-miterlimit="10" d="M405.124,44.552c0,1.935-1.803,3.506-4.027,3.506h-19.2
		c-2.226,0-4.028-1.571-4.028-3.506V19.689c0-1.935,1.805-3.506,4.028-3.506h19.2c2.227,0,4.027,1.571,4.027,3.506V44.552z"/>
	<text transform="matrix(1 0 0 1 382.4844 42.4492)" fill="#0000FF" font-family="'Futura-Medium'" font-size="27.1253">1</text>
</g>
<g>
	<g>
		
			<line fill="none" stroke="#006837" stroke-width="1.5" stroke-miterlimit="10" x1="293.209" y1="222.133" x2="174.082" y2="221.73"/>
		<g>
			<polygon fill="#006837" points="179.073,215.612 180.093,216.714 174.658,221.73 180.059,226.785 179.032,227.88 
				172.456,221.723 			"/>
		</g>
	</g>
</g>
<g>
	<circle fill="#FFFFFF" stroke="#006837" stroke-width="2" stroke-miterlimit="10" cx="293.209" cy="222.133" r="40.977"/>
	<text transform="matrix(1 0 0 1 279.3477 238.9609)" fill="#006837" font-family="'Futura-Medium'" font-size="48.8255">E</text>
</g>
<g>
	<path fill="#FFFFFF" stroke="#006837" stroke-miterlimit="10" d="M344.862,201.918c0,1.936-1.807,3.504-4.029,3.504h-19.199
		c-2.225,0-4.027-1.568-4.027-3.504v-24.861c0-1.937,1.805-3.508,4.027-3.508h19.199c2.225,0,4.029,1.571,4.029,3.508V201.918z"/>
	<text transform="matrix(1 0 0 1 323.2246 199.8164)" fill="#006837" font-family="'Futura-Medium'" font-size="27.1253">2</text>
</g>
</svg>
