<?xml version="1.0" encoding="utf-8"?>
<!-- Generator: Adobe Illustrator 15.0.0, SVG Export Plug-In . SVG Version: 6.00 Build 0)  -->
<!DOCTYPE svg PUBLIC "-//W3C//DTD SVG 1.1//EN" "http://www.w3.org/Graphics/SVG/1.1/DTD/svg11.dtd">
<svg version="1.1" id="Layer_1" xmlns="http://www.w3.org/2000/svg" xmlns:xlink="http://www.w3.org/1999/xlink" x="0px" y="0px"
	 width="503.333px" height="392.061px" viewBox="0 0 503.333 392.061" enable-background="new 0 0 503.333 392.061"
	 xml:space="preserve">
<circle fill="#0000FF" stroke="#FF0000" stroke-width="4" stroke-miterlimit="10" cx="35.438" cy="191.327" r="23.752"/>
<path fill="#0000FF" d="M209.29,276.037c0,13.115-10.634,23.749-23.751,23.749c-13.119,0-23.752-10.634-23.752-23.749
	c0-13.119,10.633-23.753,23.752-23.753C198.656,252.284,209.29,262.918,209.29,276.037z"/>
<circle fill="#0000FF" cx="323.163" cy="191.327" r="23.752"/>
<g>
	<g>
		
			<line fill="none" stroke="#0000FF" stroke-width="3" stroke-miterlimit="10" x1="63.892" y1="176.392" x2="185.538" y2="117.019"/>
		<g>
			<polygon fill="#0000FF" points="78.207,183.058 79.082,180.186 64.928,175.89 70.247,162.085 67.444,161.008 60.969,177.821 			
				"/>
		</g>
	</g>
</g>
<circle fill="#0000FF" cx="336.338" cy="39.02" r="23.752"/>
<g>
	<g>
		<line fill="none" stroke="#0000FF" stroke-width="3" stroke-miterlimit="10" x1="214.692" y1="98.392" x2="336.338" y2="39.019"/>
		<g>
			<polygon fill="#0000FF" points="229.007,105.058 229.882,102.186 215.729,97.89 221.047,84.085 218.245,83.008 211.77,99.821 			
				"/>
		</g>
	</g>
</g>
<g>
	<g>
		
			<line fill="none" stroke="#0000FF" stroke-width="3" stroke-miterlimit="10" x1="63.801" y1="207.334" x2="185.538" y2="276.037"/>
		<g>
			<polygon fill="#0000FF" points="66.428,222.905 69.29,221.997 64.802,207.903 79.189,204.457 78.487,201.537 60.966,205.738 			
				"/>
		</g>
	</g>
</g>
<g>
	<g>
		
			<line fill="none" stroke="#0000FF" stroke-width="3" stroke-miterlimit="10" x1="214.54" y1="258.185" x2="323.162" y2="191.327"/>
		<g>
			<polygon fill="#0000FF" points="229.436,263.423 230.028,260.479 215.522,257.583 219.469,243.326 216.576,242.527 
				211.771,259.893 			"/>
		</g>
	</g>
</g>
<g>
	<g>
		
			<line fill="none" stroke="#0000FF" stroke-width="3" stroke-miterlimit="10" x1="214.631" y1="132.729" x2="323.162" y2="191.327"/>
		<g>
			<polygon fill="#0000FF" points="217.549,148.248 220.394,147.286 215.643,133.278 229.963,129.563 229.207,126.657 
				211.768,131.185 			"/>
		</g>
	</g>
</g>
<g>
	<path fill="#FFFFFF" stroke="#0000FF" stroke-miterlimit="10" d="M363.065,23.572c0,1.657-1.343,3-3,3h-12.86c-1.657,0-3-1.343-3-3
		V6.964c0-1.657,1.343-3,3-3h12.86c1.657,0,3,1.343,3,3V23.572z"/>
	<text transform="matrix(1 0 0 1 346.7485 22.3022)" fill="#0000FF" font-family="'Futura-Medium'" font-size="19">A</text>
</g>
<path fill="#0000FF" d="M348.065,354.463c0,13.115-10.634,23.749-23.751,23.749c-13.119,0-23.753-10.634-23.753-23.749
	c0-13.119,10.634-23.753,23.753-23.753C337.431,330.71,348.065,341.344,348.065,354.463z"/>
<circle fill="#0000FF" cx="461.938" cy="269.752" r="23.752"/>
<g>
	<g>
		
			<line fill="none" stroke="#0000FF" stroke-width="3" stroke-miterlimit="10" x1="214.602" y1="292.547" x2="324.313" y2="354.463"/>
		<g>
			<polygon fill="#0000FF" points="217.229,308.118 220.091,307.21 215.604,293.115 229.991,289.669 229.289,286.75 
				211.768,290.951 			"/>
		</g>
	</g>
</g>
<g>
	<g>
		
			<line fill="none" stroke="#0000FF" stroke-width="3" stroke-miterlimit="10" x1="353.315" y1="336.61" x2="461.937" y2="269.752"/>
		<g>
			<polygon fill="#0000FF" points="368.211,341.849 368.803,338.904 354.297,336.009 358.245,321.752 355.351,320.953 
				350.546,338.318 			"/>
		</g>
	</g>
</g>
<g>
	<g>
		
			<line fill="none" stroke="#0000FF" stroke-width="3" stroke-miterlimit="10" x1="353.407" y1="211.154" x2="461.937" y2="269.752"/>
		<g>
			<polygon fill="#0000FF" points="356.325,226.674 359.169,225.712 354.418,211.703 368.739,207.988 367.982,205.083 
				350.543,209.611 			"/>
		</g>
	</g>
</g>
<g>
	<path fill="#FFFFFF" stroke="#0000FF" stroke-miterlimit="10" d="M490.439,259.289c0,1.656-1.343,3-3,3h-12.86
		c-1.657,0-3-1.344-3-3v-16.608c0-1.657,1.343-3,3-3h12.86c1.657,0,3,1.343,3,3V259.289z"/>
	<text transform="matrix(1 0 0 1 475.6919 258.0195)" fill="#0000FF" font-family="'Futura-Medium'" font-size="19">B</text>
</g>
<circle fill="#0000FF" stroke="#FF0000" stroke-width="4" stroke-miterlimit="10" cx="185.538" cy="117.02" r="23.752"/>
</svg>
