<?xml version="1.0" encoding="utf-8"?>
<!-- Generator: Adobe Illustrator 15.0.0, SVG Export Plug-In . SVG Version: 6.00 Build 0)  -->
<!DOCTYPE svg PUBLIC "-//W3C//DTD SVG 1.1//EN" "http://www.w3.org/Graphics/SVG/1.1/DTD/svg11.dtd">
<svg version="1.1" id="Layer_1" xmlns="http://www.w3.org/2000/svg" xmlns:xlink="http://www.w3.org/1999/xlink" x="0px" y="0px"
	 width="523.333px" height="462px" viewBox="0 0 523.333 462" enable-background="new 0 0 523.333 462" xml:space="preserve">
<circle fill="#0000FF" stroke="#FF0000" stroke-width="4" stroke-miterlimit="10" cx="35.438" cy="228.599" r="23.752"/>
<path fill="#0000FF" stroke="#FF0000" stroke-width="4" stroke-miterlimit="10" d="M209.29,313.309
	c0,13.115-10.634,23.749-23.751,23.749c-13.119,0-23.752-10.634-23.752-23.749c0-13.119,10.633-23.753,23.752-23.753
	C198.656,289.556,209.29,300.19,209.29,313.309z"/>
<g>
	<g>
		
			<line fill="none" stroke="#0000FF" stroke-width="3" stroke-miterlimit="10" x1="63.892" y1="213.664" x2="185.538" y2="154.291"/>
		<g>
			<polygon fill="#0000FF" points="78.207,220.33 79.082,217.458 64.928,213.162 70.247,199.357 67.444,198.28 60.969,215.093 			
				"/>
		</g>
	</g>
</g>
<g>
	<g>
		
			<line fill="none" stroke="#0000FF" stroke-width="3" stroke-miterlimit="10" x1="63.801" y1="244.606" x2="185.538" y2="313.309"/>
		<g>
			<polygon fill="#0000FF" points="66.428,260.177 69.29,259.269 64.802,245.175 79.189,241.729 78.487,238.809 60.966,243.01 			
				"/>
		</g>
	</g>
</g>
<circle fill="#0000FF" stroke="#FF0000" stroke-width="4" stroke-miterlimit="10" cx="185.538" cy="154.292" r="23.752"/>
<path fill="#0000FF" d="M342.496,430.375c-2.531,12.869-15.019,21.25-27.89,18.719c-12.872-2.532-21.253-15.019-18.722-27.887
	c2.532-12.873,15.018-21.255,27.891-18.723C336.645,405.016,345.028,417.502,342.496,430.375z"/>
<path fill="#0000FF" d="M493.882,373.82c-2.531,12.869-15.019,21.251-27.89,18.72c-12.872-2.532-21.253-15.02-18.721-27.888
	c2.531-12.873,15.017-21.254,27.889-18.722C488.032,348.462,496.415,360.948,493.882,373.82z"/>
<g>
	<g>
		
			<line fill="none" stroke="#0000FF" stroke-width="3" stroke-miterlimit="10" x1="219.063" y1="304.541" x2="349.881" y2="269.762"/>
		<g>
			<polygon fill="#0000FF" points="231.822,313.844 233.235,311.195 220.176,304.248 228.06,291.729 225.518,290.131 
				215.919,305.379 			"/>
		</g>
	</g>
</g>
<g>
	<g>
		
			<line fill="none" stroke="#0000FF" stroke-width="3" stroke-miterlimit="10" x1="213.002" y1="334.884" x2="319.19" y2="425.791"/>
		<g>
			<polygon fill="#0000FF" points="212.574,350.669 215.558,350.331 213.875,335.635 228.657,335.03 228.531,332.03 210.529,332.77 
							"/>
		</g>
	</g>
</g>
<g>
	<g>
		
			<line fill="none" stroke="#0000FF" stroke-width="3" stroke-miterlimit="10" x1="351.091" y1="413.871" x2="470.575" y2="369.236"/>
		<g>
			<polygon fill="#0000FF" points="364.697,421.886 365.845,419.112 352.17,413.47 358.796,400.244 356.111,398.901 
				348.044,415.012 			"/>
		</g>
	</g>
</g>
<g>
	<g>
		
			<line fill="none" stroke="#0000FF" stroke-width="3" stroke-miterlimit="10" x1="375.396" y1="290.792" x2="470.575" y2="369.236"/>
		<g>
			<polygon fill="#0000FF" points="375.263,306.582 378.24,306.188 376.283,291.526 391.05,290.645 390.869,287.648 
				372.883,288.724 			"/>
		</g>
	</g>
</g>
<path fill="#0000FF" d="M373.187,274.348c-2.532,12.868-15.02,21.251-27.89,18.719c-12.872-2.531-21.253-15.019-18.722-27.887
	c2.532-12.873,15.018-21.254,27.89-18.722C367.336,248.99,375.718,261.475,373.187,274.348z"/>
<path fill="#0000FF" d="M342.496,30.942c-2.531-12.869-15.019-21.25-27.89-18.719c-12.872,2.532-21.253,15.019-18.722,27.887
	c2.532,12.873,15.018,21.255,27.891,18.723C336.645,56.3,345.028,43.814,342.496,30.942z"/>
<path fill="#0000FF" d="M493.882,87.497c-2.531-12.869-15.019-21.251-27.89-18.72c-12.872,2.532-21.253,15.02-18.721,27.888
	c2.531,12.873,15.017,21.254,27.889,18.722C488.032,112.854,496.415,100.369,493.882,87.497z"/>
<g>
	<g>
		
			<line fill="none" stroke="#0000FF" stroke-width="3" stroke-miterlimit="10" x1="219.063" y1="156.776" x2="349.881" y2="191.554"/>
		<g>
			<polygon fill="#0000FF" points="225.517,171.188 228.059,169.59 220.174,157.075 233.234,150.124 231.821,147.475 
				215.917,155.943 			"/>
		</g>
	</g>
</g>
<g>
	<g>
		<line fill="none" stroke="#0000FF" stroke-width="3" stroke-miterlimit="10" x1="213.002" y1="126.433" x2="319.19" y2="35.526"/>
		<g>
			<polygon fill="#0000FF" points="228.533,129.289 228.659,126.289 213.878,125.686 215.56,110.988 212.576,110.649 
				210.533,128.551 			"/>
		</g>
	</g>
</g>
<g>
	<g>
		<line fill="none" stroke="#0000FF" stroke-width="3" stroke-miterlimit="10" x1="351.091" y1="47.446" x2="470.575" y2="92.081"/>
		<g>
			<polygon fill="#0000FF" points="356.11,62.418 358.795,61.076 352.168,47.851 365.844,42.208 364.696,39.433 348.042,46.31 			
				"/>
		</g>
	</g>
</g>
<g>
	<g>
		
			<line fill="none" stroke="#0000FF" stroke-width="3" stroke-miterlimit="10" x1="375.396" y1="170.525" x2="470.575" y2="92.081"/>
		<g>
			<polygon fill="#0000FF" points="390.871,173.671 391.052,170.674 376.287,169.795 378.242,155.131 375.265,154.737 
				372.887,172.597 			"/>
		</g>
	</g>
</g>
<path fill="#0000FF" d="M373.187,186.968c-2.532-12.868-15.02-21.251-27.89-18.719c-12.872,2.531-21.253,15.019-18.722,27.887
	c2.532,12.873,15.018,21.254,27.89,18.722C367.336,212.327,375.718,199.841,373.187,186.968z"/>
<g>
	<path fill="#FFFFFF" stroke="#0000FF" stroke-miterlimit="10" d="M503.763,356.667c0,1.656-1.343,3-3,3h-12.86
		c-1.657,0-3-1.344-3-3v-16.608c0-1.657,1.343-3,3-3h12.86c1.657,0,3,1.343,3,3V356.667z"/>
	<text transform="matrix(1 0 0 1 489.0161 355.397)" fill="#0000FF" font-family="'Futura-Medium'" font-size="19">B</text>
</g>
<g>
	<path fill="#FFFFFF" stroke="#0000FF" stroke-miterlimit="10" d="M498.398,82.561c0,1.657-1.343,3-3,3h-12.86c-1.657,0-3-1.343-3-3
		V65.953c0-1.657,1.343-3,3-3h12.86c1.657,0,3,1.343,3,3V82.561z"/>
	<text transform="matrix(1 0 0 1 482.0815 81.291)" fill="#0000FF" font-family="'Futura-Medium'" font-size="19">A</text>
</g>
</svg>
