<?xml version="1.0" encoding="utf-8"?>
<!-- Generator: Adobe Illustrator 15.0.0, SVG Export Plug-In . SVG Version: 6.00 Build 0)  -->
<!DOCTYPE svg PUBLIC "-//W3C//DTD SVG 1.1//EN" "http://www.w3.org/Graphics/SVG/1.1/DTD/svg11.dtd">
<svg version="1.1" id="Layer_1" xmlns="http://www.w3.org/2000/svg" xmlns:xlink="http://www.w3.org/1999/xlink" x="0px" y="0px"
	 width="509.766px" height="318.121px" viewBox="0 0 509.766 318.121" enable-background="new 0 0 509.766 318.121"
	 xml:space="preserve">
<circle fill="#0000FF" stroke="#FF0000" stroke-width="4" stroke-miterlimit="10" cx="40.715" cy="46.428" r="23.751"/>
<circle fill="#0000FF" cx="189.797" cy="46.428" r="23.752"/>
<circle fill="#0000FF" cx="111.774" cy="191.327" r="23.752"/>
<circle fill="#0000FF" cx="261.873" cy="117.02" r="23.752"/>
<path fill="#0000FF" d="M285.625,276.037c0,13.115-10.634,23.749-23.751,23.749c-13.119,0-23.752-10.634-23.752-23.749
	c0-13.119,10.633-23.753,23.752-23.753C274.991,252.284,285.625,262.918,285.625,276.037z"/>
<circle fill="#0000FF" cx="399.498" cy="191.327" r="23.752"/>
<circle fill="#0000FF" cx="335.438" cy="46.428" r="23.752"/>
<circle fill="#0000FF" cx="472.905" cy="46.428" r="23.752"/>
<g>
	<g>
		<line fill="none" stroke="#0000FF" stroke-width="3" stroke-miterlimit="10" x1="76.147" y1="46.428" x2="189.797" y2="46.428"/>
		<g>
			<polygon fill="#0000FF" points="86.087,58.698 88.134,56.5 77.298,46.431 88.134,36.359 86.087,34.162 72.894,46.431 			"/>
		</g>
	</g>
</g>
<g>
	<g>
		<line fill="none" stroke="#0000FF" stroke-width="3" stroke-miterlimit="10" x1="58.451" y1="79.619" x2="111.774" y2="191.327"/>
		<g>
			<polygon fill="#0000FF" points="51.661,93.875 54.525,94.776 58.945,80.66 72.702,86.099 73.804,83.306 57.047,76.685 			"/>
		</g>
	</g>
</g>
<g>
	<g>
		
			<line fill="none" stroke="#0000FF" stroke-width="3" stroke-miterlimit="10" x1="140.227" y1="176.392" x2="261.873" y2="117.019"/>
		<g>
			<polygon fill="#0000FF" points="154.542,183.058 155.417,180.186 141.263,175.89 146.583,162.085 143.78,161.008 
				137.305,177.821 			"/>
		</g>
	</g>
</g>
<g>
	<g>
		
			<line fill="none" stroke="#0000FF" stroke-width="3" stroke-miterlimit="10" x1="140.137" y1="207.334" x2="261.873" y2="276.037"/>
		<g>
			<polygon fill="#0000FF" points="142.763,222.905 145.625,221.997 141.138,207.903 155.524,204.457 154.822,201.537 
				137.302,205.738 			"/>
		</g>
	</g>
</g>
<g>
	<g>
		
			<line fill="none" stroke="#0000FF" stroke-width="3" stroke-miterlimit="10" x1="290.875" y1="258.185" x2="399.497" y2="191.327"/>
		<g>
			<polygon fill="#0000FF" points="305.771,263.423 306.363,260.479 291.857,257.583 295.805,243.326 292.911,242.527 
				288.106,259.893 			"/>
		</g>
	</g>
</g>
<g>
	<g>
		
			<line fill="none" stroke="#0000FF" stroke-width="3" stroke-miterlimit="10" x1="290.967" y1="132.729" x2="399.497" y2="191.327"/>
		<g>
			<polygon fill="#0000FF" points="293.885,148.248 296.729,147.286 291.979,133.278 306.299,129.563 305.542,126.657 
				288.104,131.185 			"/>
		</g>
	</g>
</g>
<g>
	<g>
		<line fill="none" stroke="#0000FF" stroke-width="3" stroke-miterlimit="10" x1="221.787" y1="46.428" x2="335.438" y2="46.428"/>
		<g>
			<polygon fill="#0000FF" points="231.728,58.698 233.774,56.5 222.938,46.431 233.774,36.359 231.728,34.162 218.534,46.431 			
				"/>
		</g>
	</g>
</g>
<g>
	<g>
		<line fill="none" stroke="#0000FF" stroke-width="3" stroke-miterlimit="10" x1="367.484" y1="46.428" x2="472.907" y2="46.428"/>
		<g>
			<polygon fill="#0000FF" points="377.424,58.698 379.471,56.5 368.635,46.431 379.471,36.359 377.424,34.162 364.23,46.431 			"/>
		</g>
	</g>
</g>
<g>
	<path fill="#FFFFFF" stroke="#0000FF" stroke-miterlimit="10" d="M501,34.328c0,1.657-1.343,3-3,3h-12.86c-1.657,0-3-1.343-3-3
		V17.72c0-1.657,1.343-3,3-3H498c1.657,0,3,1.343,3,3V34.328z"/>
	<text transform="matrix(1 0 0 1 484.6836 33.0586)" fill="#0000FF" font-family="'Futura-Medium'" font-size="19">A</text>
</g>
<g>
	<path fill="#FFFFFF" stroke="#0000FF" stroke-miterlimit="10" d="M427.999,180.863c0,1.657-1.343,3-3,3h-12.86
		c-1.657,0-3-1.343-3-3v-16.608c0-1.657,1.343-3,3-3h12.86c1.657,0,3,1.343,3,3V180.863z"/>
	<text transform="matrix(1 0 0 1 413.252 179.5933)" fill="#0000FF" font-family="'Futura-Medium'" font-size="19">B</text>
</g>
</svg>
