<?xml version="1.0" encoding="utf-8"?>
<!-- Generator: Adobe Illustrator 15.0.0, SVG Export Plug-In . SVG Version: 6.00 Build 0)  -->
<!DOCTYPE svg PUBLIC "-//W3C//DTD SVG 1.1//EN" "http://www.w3.org/Graphics/SVG/1.1/DTD/svg11.dtd">
<svg version="1.1" id="Layer_1" xmlns="http://www.w3.org/2000/svg" xmlns:xlink="http://www.w3.org/1999/xlink" x="0px" y="0px"
	 width="523.333px" height="462px" viewBox="0 0 523.333 462" enable-background="new 0 0 523.333 462" xml:space="preserve">
<circle fill="#0000FF" stroke="#FF0000" stroke-width="4" stroke-miterlimit="10" cx="35.438" cy="228.599" r="23.752"/>
<path fill="#0000FF" stroke="#FF0000" stroke-width="4" stroke-miterlimit="10" d="M209.29,313.309
	c0,13.115-10.634,23.75-23.751,23.75c-13.119,0-23.752-10.635-23.752-23.75c0-13.119,10.633-23.752,23.752-23.752
	C198.656,289.557,209.29,300.189,209.29,313.309z"/>
<g>
	<g>
		
			<line fill="none" stroke="#0000FF" stroke-width="3" stroke-miterlimit="10" x1="63.892" y1="213.664" x2="185.538" y2="154.291"/>
		<g>
			<polygon fill="#0000FF" points="78.207,220.33 79.082,217.458 64.928,213.162 70.247,199.357 67.444,198.28 60.969,215.093 			
				"/>
		</g>
	</g>
</g>
<g>
	<g>
		
			<line fill="none" stroke="#0000FF" stroke-width="3" stroke-miterlimit="10" x1="63.801" y1="244.605" x2="185.538" y2="313.309"/>
		<g>
			<polygon fill="#0000FF" points="66.428,260.177 69.29,259.27 64.802,245.175 79.189,241.729 78.487,238.809 60.966,243.01 			"/>
		</g>
	</g>
</g>
<circle fill="#0000FF" stroke="#FF0000" stroke-width="4" stroke-miterlimit="10" cx="185.538" cy="154.292" r="23.752"/>
<path fill="#0000FF" d="M342.497,430.375c-2.531,12.869-15.02,21.25-27.891,18.719c-12.872-2.532-21.253-15.019-18.723-27.887
	c2.533-12.873,15.02-21.255,27.893-18.723C336.645,405.016,345.028,417.502,342.497,430.375z"/>
<path fill="#0000FF" d="M493.881,373.82c-2.531,12.869-15.018,21.25-27.889,18.72c-12.873-2.532-21.254-15.021-18.721-27.888
	c2.527-12.873,15.016-21.254,27.889-18.723C488.032,348.462,496.415,360.948,493.881,373.82z"/>
<g>
	<g>
		
			<line fill="none" stroke="#0000FF" stroke-width="3" stroke-miterlimit="10" x1="213.002" y1="334.884" x2="319.19" y2="425.791"/>
		<g>
			<polygon fill="#0000FF" points="212.574,350.669 215.558,350.331 213.875,335.635 228.657,335.029 228.531,332.029 
				210.529,332.77 			"/>
		</g>
	</g>
</g>
<g>
	<g>
		
			<line fill="none" stroke="#0000FF" stroke-width="3" stroke-miterlimit="10" x1="351.09" y1="413.871" x2="470.575" y2="369.236"/>
		<g>
			<polygon fill="#0000FF" points="364.698,421.886 365.844,419.112 352.17,413.47 358.795,400.244 356.112,398.901 
				348.043,415.012 			"/>
		</g>
	</g>
</g>
<g>
	<g>
		
			<line fill="none" stroke="#0000FF" stroke-width="3" stroke-miterlimit="10" x1="375.397" y1="290.792" x2="470.575" y2="369.236"/>
		<g>
			<polygon fill="#0000FF" points="375.262,306.582 378.241,306.188 376.284,291.525 391.049,290.645 390.87,287.648 
				372.883,288.725 			"/>
		</g>
	</g>
</g>
<path fill="#0000FF" d="M373.188,274.348c-2.533,12.868-15.021,21.252-27.891,18.719c-12.873-2.529-21.254-15.019-18.723-27.887
	c2.533-12.873,15.018-21.254,27.891-18.722C367.336,248.99,375.717,261.475,373.188,274.348z"/>
<path fill="#0000FF" d="M342.497,30.942c-2.531-12.869-15.02-21.25-27.891-18.719c-12.872,2.532-21.253,15.019-18.723,27.887
	c2.533,12.873,15.02,21.255,27.893,18.723C336.645,56.3,345.028,43.814,342.497,30.942z"/>
<path fill="#0000FF" d="M493.881,87.497c-2.531-12.869-15.018-21.251-27.889-18.72c-12.873,2.532-21.254,15.02-18.721,27.888
	c2.527,12.873,15.016,21.254,27.889,18.722C488.032,112.854,496.415,100.369,493.881,87.497z"/>
<g>
	<g>
		<line fill="none" stroke="#0000FF" stroke-width="3" stroke-miterlimit="10" x1="213.002" y1="126.433" x2="319.19" y2="35.526"/>
		<g>
			<polygon fill="#0000FF" points="228.533,129.289 228.659,126.289 213.878,125.686 215.56,110.988 212.576,110.649 
				210.533,128.551 			"/>
		</g>
	</g>
</g>
<g>
	<g>
		<line fill="none" stroke="#0000FF" stroke-width="3" stroke-miterlimit="10" x1="351.09" y1="47.446" x2="470.575" y2="92.081"/>
		<g>
			<polygon fill="#0000FF" points="356.11,62.418 358.795,61.076 352.168,47.851 365.844,42.208 364.696,39.433 348.042,46.31 			
				"/>
		</g>
	</g>
</g>
<g>
	<g>
		
			<line fill="none" stroke="#0000FF" stroke-width="3" stroke-miterlimit="10" x1="375.397" y1="170.525" x2="470.575" y2="92.081"/>
		<g>
			<polygon fill="#0000FF" points="390.872,173.671 391.051,170.674 376.288,169.795 378.243,155.131 375.264,154.737 
				372.887,172.597 			"/>
		</g>
	</g>
</g>
<path fill="#0000FF" d="M373.188,186.968c-2.533-12.868-15.021-21.251-27.891-18.719c-12.873,2.531-21.254,15.019-18.723,27.887
	c2.533,12.873,15.018,21.254,27.891,18.722C367.336,212.327,375.717,199.841,373.188,186.968z"/>
<g>
	<path fill="#FFFFFF" stroke="#0000FF" stroke-miterlimit="10" d="M503.762,356.667c0,1.656-1.342,3-3,3h-12.859
		c-1.656,0-3-1.344-3-3v-16.608c0-1.656,1.344-3,3-3h12.859c1.658,0,3,1.344,3,3V356.667z"/>
	<text transform="matrix(1 0 0 1 489.0161 355.3975)" fill="#0000FF" font-family="'Futura-Medium'" font-size="19">B</text>
</g>
<g>
	<path fill="#FFFFFF" stroke="#0000FF" stroke-miterlimit="10" d="M498.399,82.561c0,1.657-1.344,3-3,3h-12.861
		c-1.656,0-3-1.343-3-3V65.953c0-1.657,1.344-3,3-3h12.861c1.656,0,3,1.343,3,3V82.561z"/>
	<text transform="matrix(1 0 0 1 482.0815 81.291)" fill="#0000FF" font-family="'Futura-Medium'" font-size="19">A</text>
</g>
<g>
	<g>
		
			<line fill="none" stroke="#0000FF" stroke-width="3" stroke-miterlimit="10" x1="349.881" y1="191.554" x2="213.147" y2="292.854"/>
		<g>
			<polygon fill="#0000FF" points="213.831,277.078 216.783,277.625 214.071,292.167 228.773,293.811 228.437,296.793 
				210.531,294.789 			"/>
		</g>
	</g>
</g>
<g>
	<g>
		
			<line fill="none" stroke="#0000FF" stroke-width="3" stroke-miterlimit="10" x1="349.881" y1="269.763" x2="218.464" y2="177.426"/>
		<g>
			<polygon fill="#0000FF" points="233.651,173.101 234.062,176.076 219.408,178.085 222.483,192.556 219.545,193.177 
				215.804,175.553 			"/>
		</g>
	</g>
</g>
</svg>
