<?xml version="1.0" encoding="utf-8"?>
<!-- Generator: Adobe Illustrator 15.0.0, SVG Export Plug-In . SVG Version: 6.00 Build 0)  -->
<!DOCTYPE svg PUBLIC "-//W3C//DTD SVG 1.1//EN" "http://www.w3.org/Graphics/SVG/1.1/DTD/svg11.dtd">
<svg version="1.1" id="Layer_1" xmlns="http://www.w3.org/2000/svg" xmlns:xlink="http://www.w3.org/1999/xlink" x="0px" y="0px"
	 width="500px" height="858.197px" viewBox="0 0 500 858.197" enable-background="new 0 0 500 858.197" xml:space="preserve">
<path fill="#FFFFFF" stroke="#000000" stroke-width="2" stroke-miterlimit="10" d="M395.277,779.713c0,7.445-3.582,13.484-8,13.484
	H99.111c-4.418,0-8-6.039-8-13.484V32.97c0-7.446,3.582-13.484,8-13.484h288.167c4.418,0,8,6.038,8,13.484L395.277,779.713
	L395.277,779.713z"/>
<path opacity="0.52" fill="#39B54A" enable-background="new    " d="M357.083,88.028c0,3.007-3.39,5.444-7.571,5.444H44.6
	c-4.181,0-7.571-2.437-7.571-5.444V58.75c0-3.006,3.39-5.444,7.571-5.444h304.912c4.185,0,7.571,2.438,7.571,5.444V88.028z"/>
<path fill="none" stroke="#FF2F1F" stroke-width="3" stroke-miterlimit="10" d="M435.271,672.222c0,5.51-4.409,9.976-9.851,9.976
	H88.35c-5.44,0-9.85-4.466-9.85-9.976V122.475c0-5.51,4.41-9.975,9.85-9.975h337.071c5.44,0,9.851,4.465,9.851,9.975V672.222
	L435.271,672.222z"/>
<path opacity="0.52" fill="#39B54A" enable-background="new    " d="M386.082,204.458c0,4.418-2.971,8-6.636,8h-267.25
	c-3.665,0-6.636-3.582-6.636-8V161.43c0-4.418,2.971-8,6.636-8h267.25c3.666,0,6.637,3.582,6.637,8L386.082,204.458L386.082,204.458
	z"/>
<path opacity="0.52" fill="#39B54A" enable-background="new    " d="M386.082,288.475c0,4.815-2.971,8.722-6.636,8.722h-267.25
	c-3.665,0-6.636-3.907-6.636-8.722v-46.914c0-4.817,2.971-8.722,6.636-8.722h267.25c3.666,0,6.637,3.905,6.637,8.722
	L386.082,288.475L386.082,288.475z"/>
<path opacity="0.52" fill="#29ABE2" enable-background="new    " d="M98.167,493.01c0,6.042,3.664,10.939,8.184,10.939h262.823
	c4.518,0,8.185-4.897,8.185-10.939v-65.967c0-6.041-3.667-10.939-8.185-10.939H106.35c-4.521,0-8.184,4.898-8.184,10.939
	L98.167,493.01L98.167,493.01z"/>
<path opacity="0.52" fill="#29ABE2" enable-background="new    " d="M98.167,613.211c0,6.943,3.663,12.572,8.182,12.572h262.766
	c4.519,0,8.183-5.629,8.183-12.572v-75.789c0-6.938-3.664-12.568-8.183-12.568H106.349c-4.52,0-8.182,5.63-8.182,12.568V613.211z"/>
<path opacity="0.52" fill="#29ABE2" enable-background="new    " d="M212.639,730.247c0,2.874,3.172,5.203,7.085,5.203h227.547
	c3.909,0,7.085-2.329,7.085-5.203v-31.372c0-2.873-3.176-5.203-7.085-5.203H219.724c-3.914,0-7.085,2.33-7.085,5.203V730.247
	L212.639,730.247z"/>
<g>
	<path fill="#FFFFFF" stroke="#006837" stroke-width="2" stroke-miterlimit="10" d="M63.078,82.352c0,4.418-3.582,8-8,8H37.152
		c-4.418,0-8-3.582-8-8V64.426c0-4.418,3.582-8,8-8h17.926c4.418,0,8,3.582,8,8V82.352z"/>
	<text transform="matrix(1 0 0 1 32.0288 83.8418)" fill="#006837" font-family="'Futura-Medium'" font-size="26.7705">P1</text>
</g>
<g>
	<path fill="#FFFFFF" stroke="#0000FF" stroke-width="2" stroke-miterlimit="10" d="M389.319,468.99c0,4.418-3.582,8-8,8h-17.929
		c-4.418,0-8-3.582-8-8v-17.928c0-4.418,3.582-8,8-8h17.929c4.418,0,8,3.582,8,8V468.99z"/>
	<text transform="matrix(1 0 0 1 358.2705 470.4795)" fill="#0000FF" font-family="'Futura-Medium'" font-size="26.7705">P</text>
	<text transform="matrix(1 0 0 1 370.0508 470.4795)" fill="#0000FF" font-family="'Futura-Medium'" font-size="26.7705">4</text>
</g>
<g>
	<path fill="#FFFFFF" stroke="#0000FF" stroke-width="2" stroke-miterlimit="10" d="M389.233,584.281c0,4.418-3.682,8-8.219,8
		h-18.405c-4.537,0-8.219-3.582-8.219-8v-17.926c0-4.42,3.682-8,8.219-8h18.405c4.537,0,8.219,3.58,8.219,8V584.281z"/>
	<text transform="matrix(1 0 0 1 357.2705 585.7705)" fill="#0000FF" font-family="'Futura-Medium'" font-size="26.7705">P</text>
	<text transform="matrix(1 0 0 1 370.1211 585.7705)" fill="#0000FF" font-family="'Futura-Medium'" font-size="26.7705">5</text>
</g>
<g>
	<path fill="#FFFFFF" stroke="#0000FF" stroke-width="2" stroke-miterlimit="10" d="M467.233,723.523c0,4.418-3.682,8-8.219,8
		h-18.405c-4.537,0-8.219-3.582-8.219-8v-17.927c0-4.419,3.682-8,8.219-8h18.405c4.537,0,8.219,3.581,8.219,8V723.523z"/>
	<text transform="matrix(1 0 0 1 435.2705 725.0127)" fill="#0000FF" font-family="'Futura-Medium'" font-size="26.7705">P</text>
	<text transform="matrix(1 0 0 1 448.1211 725.0127)" fill="#0000FF" font-family="'Futura-Medium'" font-size="26.7705">6</text>
</g>
<g>
	<path fill="#FFFFFF" stroke="#006837" stroke-width="2" stroke-miterlimit="10" d="M132.274,191.907c0,4.418-3.771,8-8.422,8
		h-18.87c-4.651,0-8.422-3.582-8.422-8V173.98c0-4.418,3.771-8,8.422-8h18.87c4.651,0,8.422,3.582,8.422,8V191.907z"/>
	<text transform="matrix(1 0 0 1 99.4375 193.3965)" fill="#006837" font-family="'Futura-Medium'" font-size="26.7705">P2</text>
</g>
<g>
	<path fill="#FFFFFF" stroke="#006837" stroke-width="2" stroke-miterlimit="10" d="M132.38,274.477c0,4.418-3.771,8-8.422,8h-18.87
		c-4.651,0-8.422-3.582-8.422-8v-17.926c0-4.418,3.771-8,8.422-8h18.87c4.651,0,8.422,3.582,8.422,8V274.477z"/>
	<text transform="matrix(1 0 0 1 99.5435 275.9668)" fill="#006837" font-family="'Futura-Medium'" font-size="26.7705">P3</text>
</g>
<g>
	<path fill="#FFFFFF" stroke="#FF2F1F" stroke-width="2" stroke-miterlimit="10" d="M453.128,371.477c0,4.418-3.771,8-8.422,8
		h-18.87c-4.65,0-8.422-3.582-8.422-8v-17.926c0-4.418,3.771-8,8.422-8h18.87c4.651,0,8.422,3.582,8.422,8V371.477z"/>
	<text transform="matrix(1 0 0 1 425.291 372.9668)" fill="#FF2F1F" font-family="'Futura-Medium'" font-size="26.7705">C</text>
</g>
<text transform="matrix(1 0 0 1 99.5435 142.5)" font-family="'HelveticaNeue-Bold'" font-size="36">&lt;&lt;&lt;&lt;&lt;&lt;&lt;&lt;&lt;&lt;&lt;&lt;&lt;</text>
<text transform="matrix(1 0 0 1 99.5435 372.5)" font-family="'HelveticaNeue-Bold'" font-size="36">=============</text>
<text transform="matrix(1 0 0 1 99.5435 666.5)" font-family="'HelveticaNeue-Bold'" font-size="36">&gt;&gt;&gt;&gt;&gt;&gt;&gt;&gt;&gt;&gt;&gt;&gt;&gt;</text>
</svg>
