<?xml version="1.0" encoding="utf-8"?>
<!-- Generator: Adobe Illustrator 15.0.0, SVG Export Plug-In . SVG Version: 6.00 Build 0)  -->
<!DOCTYPE svg PUBLIC "-//W3C//DTD SVG 1.1//EN" "http://www.w3.org/Graphics/SVG/1.1/DTD/svg11.dtd">
<svg version="1.1" id="Layer_1" xmlns="http://www.w3.org/2000/svg" xmlns:xlink="http://www.w3.org/1999/xlink" x="0px" y="0px"
	 width="500px" height="500px" viewBox="0 0 500 500" enable-background="new 0 0 500 500" xml:space="preserve">
<path fill="#FFFFFF" stroke="#000000" stroke-width="2" stroke-miterlimit="10" d="M395.277,471.514c0,4.418-3.582,8-8,8H99.111
	c-4.418,0-8-3.582-8-8V28.486c0-4.418,3.582-8,8-8h288.167c4.418,0,8,3.582,8,8L395.277,471.514L395.277,471.514z"/>
<path opacity="0.52" fill="#39B54A" enable-background="new    " d="M357.083,96.028c0,3.007-3.39,5.444-7.571,5.444H44.6
	c-4.181,0-7.571-2.437-7.571-5.444V66.75c0-3.006,3.39-5.444,7.571-5.444h304.912c4.183,0,7.571,2.438,7.571,5.444V96.028z"/>
<path opacity="0.52" fill="#39B54A" enable-background="new    " d="M357.083,172.944c0,4.418-3.384,8-7.559,8H45.119
	c-4.174,0-7.558-3.582-7.558-8v-43.028c0-4.418,3.384-8,7.558-8h304.406c4.175,0,7.559,3.582,7.559,8L357.083,172.944
	L357.083,172.944z"/>
<path opacity="0.52" fill="#39B54A" enable-background="new    " d="M357.083,278.562c0,5.821-3.384,10.541-7.559,10.541H45.119
	c-4.174,0-7.558-4.72-7.558-10.541v-56.696c0-5.822,3.384-10.541,7.558-10.541h304.406c4.175,0,7.559,4.719,7.559,10.541
	L357.083,278.562L357.083,278.562z"/>
<path opacity="0.52" fill="#29ABE2" enable-background="new    " d="M212.639,231.115c0,6.042,3.172,10.94,7.085,10.94h227.547
	c3.911,0,7.085-4.898,7.085-10.94v-65.966c0-6.042-3.174-10.94-7.085-10.94H219.724c-3.914,0-7.085,4.898-7.085,10.94V231.115
	L212.639,231.115z"/>
<path opacity="0.52" fill="#29ABE2" enable-background="new    " d="M212.639,358.316c0,6.944,3.171,12.572,7.084,12.572h227.498
	c3.912,0,7.084-5.628,7.084-12.572v-75.789c0-6.939-3.172-12.568-7.084-12.568H219.723c-3.913,0-7.084,5.629-7.084,12.568V358.316z"
	/>
<path opacity="0.52" fill="#29ABE2" enable-background="new    " d="M212.639,449.353c0,2.874,3.172,5.203,7.085,5.203h227.547
	c3.911,0,7.085-2.329,7.085-5.203V417.98c0-2.873-3.174-5.203-7.085-5.203H219.724c-3.914,0-7.085,2.33-7.085,5.203V449.353
	L212.639,449.353z"/>
<g>
	<path fill="#FFFFFF" stroke="#006837" stroke-width="2" stroke-miterlimit="10" d="M63.078,90.352c0,4.418-3.582,8-8,8H37.152
		c-4.418,0-8-3.582-8-8V72.426c0-4.418,3.582-8,8-8h17.926c4.418,0,8,3.582,8,8V90.352z"/>
	<text transform="matrix(1 0 0 1 32.0288 91.8418)" fill="#006837" font-family="'Futura-Medium'" font-size="26.7705">P1</text>
</g>
<g>
	<path fill="#FFFFFF" stroke="#0000FF" stroke-width="2" stroke-miterlimit="10" d="M466.319,207.095c0,4.418-3.582,8-8,8h-17.927
		c-4.418,0-8-3.582-8-8v-17.926c0-4.418,3.582-8,8-8h17.927c4.418,0,8,3.582,8,8V207.095z"/>
	
		<text transform="matrix(1 0 0 1 435.2705 208.585)" fill="#0000FF" font-family="'Futura-Medium'" font-size="26.7705" letter-spacing="-1">P</text>
	<text transform="matrix(1 0 0 1 447.0508 208.585)" fill="#0000FF" font-family="'Futura-Medium'" font-size="26.7705">4</text>
</g>
<g>
	<path fill="#FFFFFF" stroke="#0000FF" stroke-width="2" stroke-miterlimit="10" d="M466.233,329.387c0,4.418-3.68,8-8.217,8
		h-18.407c-4.537,0-8.217-3.582-8.217-8v-17.926c0-4.419,3.68-8,8.217-8h18.407c4.537,0,8.217,3.581,8.217,8V329.387z"/>
	<text transform="matrix(1 0 0 1 434.2705 330.876)" fill="#0000FF" font-family="'Futura-Medium'" font-size="26.7705">P</text>
	<text transform="matrix(1 0 0 1 447.1211 330.876)" fill="#0000FF" font-family="'Futura-Medium'" font-size="26.7705">5</text>
</g>
<g>
	<path fill="#FFFFFF" stroke="#0000FF" stroke-width="2" stroke-miterlimit="10" d="M467.233,442.629c0,4.418-3.68,8-8.217,8
		h-18.407c-4.537,0-8.217-3.582-8.217-8v-17.926c0-4.419,3.68-8,8.217-8h18.407c4.537,0,8.217,3.581,8.217,8V442.629z"/>
	<text transform="matrix(1 0 0 1 435.2705 444.1182)" fill="#0000FF" font-family="'Futura-Medium'" font-size="26.7705">P</text>
	<text transform="matrix(1 0 0 1 448.1211 444.1182)" fill="#0000FF" font-family="'Futura-Medium'" font-size="26.7705">6</text>
</g>
<g>
	<path fill="#FFFFFF" stroke="#006837" stroke-width="2" stroke-miterlimit="10" d="M64.274,160.393c0,4.418-3.771,8-8.422,8h-18.87
		c-4.651,0-8.422-3.582-8.422-8v-17.926c0-4.418,3.771-8,8.422-8h18.87c4.651,0,8.422,3.582,8.422,8V160.393z"/>
	<text transform="matrix(1 0 0 1 31.4375 161.8828)" fill="#006837" font-family="'Futura-Medium'" font-size="26.7705">P2</text>
</g>
<g>
	<path fill="#FFFFFF" stroke="#006837" stroke-width="2" stroke-miterlimit="10" d="M64.38,258.963c0,4.418-3.771,8-8.422,8h-18.87
		c-4.651,0-8.422-3.582-8.422-8v-17.926c0-4.418,3.771-8,8.422-8h18.87c4.651,0,8.422,3.582,8.422,8V258.963z"/>
	<text transform="matrix(1 0 0 1 31.5435 260.4531)" fill="#006837" font-family="'Futura-Medium'" font-size="26.7705">P3</text>
</g>
</svg>
